<svg width="20" height="20" viewBox="0 0 20 20" fill="none" xmlns="http://www.w3.org/2000/svg">
<path d="M19.2857 0H0.714286C0.319196 0 0 0.40625 0 0.909091V19.0909C0 19.5938 0.319196 20 0.714286 20H19.2857C19.6808 20 20 19.5938 20 19.0909V0.909091C20 0.40625 19.6808 0 19.2857 0ZM17.4821 3.09375L10.4397 10.0682C10.2656 10.2415 10.0223 10.2415 9.84822 10.0682L2.80357 3.09375C2.77702 3.06767 2.75754 3.03166 2.74787 2.99078C2.7382 2.9499 2.73882 2.90619 2.74965 2.86579C2.76048 2.82538 2.78097 2.7903 2.80825 2.76546C2.83554 2.74062 2.86824 2.72727 2.90179 2.72727H17.3839C17.4175 2.72727 17.4502 2.74062 17.4775 2.76546C17.5047 2.7903 17.5252 2.82538 17.5361 2.86579C17.5469 2.90619 17.5475 2.9499 17.5378 2.99078C17.5282 3.03166 17.5087 3.06767 17.4821 3.09375Z" fill="#304F47"/>
</svg>
