<svg width="22" height="24" viewBox="0 0 22 24" fill="none" xmlns="http://www.w3.org/2000/svg">
<path fill-rule="evenodd" clip-rule="evenodd" d="M0.0625 2.78931C0.0625 1.68474 0.957931 0.789307 2.0625 0.789307H19.9375C21.0421 0.789307 21.9375 1.68474 21.9375 2.78931V21.7949C21.9375 22.8994 21.0421 23.7949 19.9375 23.7949H2.0625C0.957931 23.7949 0.0625 22.8994 0.0625 21.7949V2.78931ZM11.0001 7.52413C8.54065 7.52413 6.49593 9.62997 6.49593 12.2921C6.49593 14.9542 8.54065 17.0601 11.0001 17.0601C13.4596 17.0601 15.5043 14.9542 15.5043 12.2921C15.5043 9.62997 13.4596 7.52413 11.0001 7.52413ZM5.29594 12.2921C5.29594 9.02493 7.82165 6.32413 11.0001 6.32413C14.1786 6.32413 16.7043 9.02493 16.7043 12.2921C16.7043 15.5593 14.1786 18.2601 11.0001 18.2601C7.82165 18.2601 5.29594 15.5593 5.29594 12.2921ZM17.5624 6.92412C18.3678 6.92412 19.0207 6.23746 19.0207 5.39042C19.0207 4.54338 18.3678 3.85672 17.5624 3.85672C16.757 3.85672 16.1041 4.54338 16.1041 5.39042C16.1041 6.23746 16.757 6.92412 17.5624 6.92412Z" fill="#304F47"/>
</svg>
