<svg width="23" height="21" viewBox="0 0 23 21" fill="none" xmlns="http://www.w3.org/2000/svg">
<path d="M20.0841 5.35438C20.0841 5.57666 20.0841 5.79893 20.0841 5.98945C20.0841 12.5625 15.4794 20.1516 7.08608 20.1516C4.49231 20.1516 2.10254 19.326 0.0625 17.9288C0.412222 17.9606 0.791087 17.9924 1.14081 17.9924C3.26828 17.9924 5.25004 17.1985 6.82379 15.8649C4.81289 15.8331 3.12257 14.3724 2.56884 12.4037C2.86027 12.4672 3.12257 12.499 3.44314 12.499C3.85115 12.499 4.25916 12.4355 4.63803 12.3084C2.5397 11.8639 0.965948 9.86341 0.965948 7.45013C0.965948 7.41837 0.965948 7.41837 0.965948 7.38662C1.57796 7.76766 2.27741 7.98994 3.03514 8.02169C1.81111 7.13259 0.995092 5.60841 0.995092 3.86196C0.995092 2.9411 1.22824 2.08375 1.6071 1.35341C3.85115 4.37002 7.2318 6.33875 11.0205 6.56102C10.933 6.21173 10.9039 5.79893 10.9039 5.41789C10.9039 2.65532 12.9439 0.432556 15.4794 0.432556C16.7909 0.432556 17.9857 1.03588 18.8018 1.98849C19.8509 1.76621 20.8127 1.35341 21.7161 0.781847C21.3664 1.95673 20.6378 2.90935 19.7052 3.54442C20.6378 3.4174 21.5121 3.16337 22.3281 2.75058C21.7453 3.7667 20.9875 4.6558 20.0841 5.35438Z" fill="#304F47"/>
</svg>
